<svg width="42" height="42" viewBox="0 0 42 42" fill="none" xmlns="http://www.w3.org/2000/svg">
<path d="M41.4749 0H26.4156C24.0525 0 22.0134 1.2977 21.0572 3.16679C20.266 1.04548 18.4594 0 15.5844 0H0.525147C0.235137 0 0 0.235071 0 0.525V37.961C0 38.2509 0.235137 38.486 0.525147 38.486H15.5844C19.9679 38.486 20.4749 40.192 20.4749 41.475C20.4749 41.7649 20.71 42 21 42C21.29 42 21.5251 41.7649 21.5251 41.475C21.5251 40.192 22.0321 38.486 26.4156 38.486H41.4749C41.7649 38.486 42 38.2509 42 37.961V0.525C42 0.235071 41.7649 0 41.4749 0ZM15.5844 37.436H1.05029V1.05H15.5844C18.0027 1.05 20.4749 1.65498 20.4749 6.14312V38.8031C19.5071 37.8941 17.8735 37.436 15.5844 37.436ZM40.9497 37.436H26.4156C24.1227 37.436 22.4922 37.899 21.5251 38.8111V6.14312C21.5251 5.96409 21.5167 5.79432 21.5093 5.62324C21.5135 5.59668 21.5251 5.57277 21.5251 5.54506C21.5251 3.06643 23.7191 1.05 26.4156 1.05H40.9497V37.436Z" fill="white"/>
<path d="M26.2402 8.8522C26.2402 9.14213 26.4753 9.3772 26.7653 9.3772H36.0762C36.3662 9.3772 36.6013 9.14213 36.6013 8.8522C36.6013 8.56227 36.3662 8.3272 36.0762 8.3272H26.7653C26.4753 8.3272 26.2402 8.56227 26.2402 8.8522Z" fill="white"/>
<path d="M36.0762 13.9458H26.7653C26.4753 13.9458 26.2402 14.1809 26.2402 14.4708C26.2402 14.7608 26.4753 14.9958 26.7653 14.9958H36.0762C36.3662 14.9958 36.6013 14.7608 36.6013 14.4708C36.6013 14.1809 36.3662 13.9458 36.0762 13.9458Z" fill="white"/>
<path d="M36.0762 19.5645H26.7653C26.4753 19.5645 26.2402 19.7995 26.2402 20.0895C26.2402 20.3794 26.4753 20.6145 26.7653 20.6145H36.0762C36.3662 20.6145 36.6013 20.3794 36.6013 20.0895C36.6013 19.7995 36.3662 19.5645 36.0762 19.5645Z" fill="white"/>
<path d="M15.418 8.3272H6.10715C5.81714 8.3272 5.582 8.56227 5.582 8.8522C5.582 9.14213 5.81714 9.3772 6.10715 9.3772H15.418C15.708 9.3772 15.9431 9.14213 15.9431 8.8522C15.9431 8.56227 15.708 8.3272 15.418 8.3272Z" fill="white"/>
<path d="M15.418 13.9458H6.10715C5.81714 13.9458 5.582 14.1809 5.582 14.4708C5.582 14.7608 5.81714 14.9958 6.10715 14.9958H15.418C15.708 14.9958 15.9431 14.7608 15.9431 14.4708C15.9431 14.1809 15.708 13.9458 15.418 13.9458Z" fill="white"/>
<path d="M15.418 19.5645H6.10715C5.81714 19.5645 5.582 19.7995 5.582 20.0895C5.582 20.3794 5.81714 20.6145 6.10715 20.6145H15.418C15.708 20.6145 15.9431 20.3794 15.9431 20.0895C15.9431 19.7995 15.708 19.5645 15.418 19.5645Z" fill="white"/>
</svg>
