<?xml version="1.0" standalone="no"?>
<!DOCTYPE svg PUBLIC "-//W3C//DTD SVG 20010904//EN"
 "http://www.w3.org/TR/2001/REC-SVG-20010904/DTD/svg10.dtd">
<svg version="1.0" xmlns="http://www.w3.org/2000/svg"
 width="920.000000pt" height="463.000000pt" viewBox="0 0 920.000000 463.000000"
 preserveAspectRatio="xMidYMid meet">

<g transform="translate(0.000000,463.000000) scale(0.100000,-0.100000)"
fill="#000000" stroke="none">
<path d="M4844 4620 c-90 -13 -141 -28 -221 -66 -188 -89 -322 -297 -326 -505
l-2 -77 -89 -43 c-168 -82 -323 -210 -437 -362 -78 -103 -162 -276 -196 -402
-25 -93 -27 -114 -27 -295 0 -180 2 -203 27 -295 32 -121 125 -312 199 -410
277 -367 700 -527 1146 -435 259 53 485 210 634 440 62 96 112 189 104 197 -2
3 -21 -28 -42 -68 -94 -188 -246 -352 -401 -432 -148 -76 -219 -92 -413 -91
-150 0 -173 3 -255 28 -323 98 -560 345 -689 715 -72 206 -102 449 -77 621 45
304 215 566 462 712 l63 38 21 -59 c46 -127 124 -223 248 -309 90 -62 169
-102 372 -187 443 -186 565 -292 589 -510 20 -176 -117 -366 -339 -471 -224
-106 -562 -41 -759 147 -103 97 -176 243 -176 351 0 21 -4 38 -10 38 -13 0 -1
-94 22 -165 62 -189 235 -351 438 -408 333 -95 692 25 854 286 65 105 88 181
94 310 9 199 -32 313 -157 438 -122 121 -256 198 -511 294 -332 124 -486 227
-555 370 -87 178 6 418 202 523 128 68 338 93 478 57 134 -35 277 -123 364
-223 93 -107 102 -117 92 -97 -5 11 -34 50 -64 86 -161 193 -417 294 -663 259z"/>
<path d="M317 1173 c18 -2 50 -2 70 0 21 2 7 4 -32 4 -38 0 -55 -2 -38 -4z"/>
<path d="M3533 1165 c-120 -26 -244 -103 -328 -205 -86 -103 -142 -275 -131
-405 19 -234 166 -433 381 -515 74 -28 224 -38 308 -20 88 18 184 71 247 136
l55 58 -67 -61 c-84 -77 -151 -104 -269 -111 -143 -7 -252 35 -352 136 -115
117 -175 262 -184 442 -4 83 -2 119 12 165 51 177 172 302 339 350 46 13 84
16 165 13 113 -5 177 -24 255 -73 33 -21 36 -22 16 -4 -39 34 -139 78 -216 94
-84 18 -149 18 -231 0z"/>
<path d="M204 1146 c-135 -63 -203 -213 -161 -357 31 -104 113 -172 309 -254
184 -77 252 -124 283 -197 33 -81 13 -161 -60 -232 -62 -60 -125 -86 -216 -86
-131 0 -231 47 -300 143 -16 22 -29 37 -29 33 0 -20 69 -100 109 -127 103 -68
270 -79 383 -25 119 57 181 150 186 282 8 172 -69 256 -330 361 -144 57 -179
76 -224 115 -40 35 -73 98 -74 138 0 85 66 176 153 209 29 11 45 20 37 20 -8
1 -38 -10 -66 -23z"/>
<path d="M540 1123 c14 -10 45 -36 70 -58 l45 -39 -37 40 c-21 22 -52 47 -70
57 -32 17 -32 17 -8 0z"/>
<path d="M6773 1075 c-29 -20 -37 -59 -18 -95 33 -64 117 -41 123 34 6 65 -51
98 -105 61z"/>
<path d="M6927 1050 c7 -8 16 -27 22 -40 6 -17 10 -19 10 -8 1 9 -9 27 -21 40
-13 13 -18 17 -11 8z"/>
<path d="M4010 1047 c0 -2 15 -16 33 -33 l32 -29 -29 33 c-28 30 -36 37 -36
29z"/>
<path d="M6420 997 c0 -52 -27 -131 -54 -156 -14 -13 -40 -27 -58 -31 l-33 -8
37 -1 c39 -1 116 34 156 72 28 26 57 80 67 125 l7 32 -61 0 -61 0 0 -33z"/>
<path d="M6943 927 c-16 -57 -63 -112 -109 -127 -21 -7 -58 -10 -92 -6 -52 6
-55 5 -33 -7 49 -29 50 -41 51 -372 0 -293 -1 -312 -20 -343 -11 -18 -30 -37
-43 -42 -15 -6 25 -9 118 -9 125 0 137 1 115 14 -50 27 -51 35 -48 400 l3 340
38 83 c21 45 37 90 35 99 -2 9 -9 -4 -15 -30z"/>
<path d="M4234 777 l36 -34 0 -329 c0 -355 -1 -363 -54 -384 -13 -6 27 -9 112
-9 l132 -1 -32 29 -33 29 -2 364 -3 363 -96 3 -96 3 36 -34z"/>
<path d="M5025 799 c-127 -26 -248 -120 -303 -236 -24 -52 -27 -69 -27 -168 0
-105 2 -114 33 -177 40 -81 110 -148 190 -180 81 -32 255 -33 323 -2 55 26
108 71 133 116 15 25 7 19 -33 -24 -62 -68 -130 -98 -220 -98 -165 0 -282 117
-313 312 -27 180 48 376 166 429 87 39 204 15 262 -54 38 -45 73 -125 75 -174
l3 -43 53 0 c51 0 53 1 53 28 0 111 -98 233 -210 261 -61 16 -133 20 -185 10z"/>
<path d="M7838 793 c42 -21 62 -59 62 -121 l0 -49 -70 -47 c-38 -25 -70 -48
-70 -51 0 -2 60 35 133 83 l132 86 -3 58 -4 58 -106 0 c-106 0 -107 -1 -74
-17z"/>
<path d="M931 774 c-27 -34 -26 -49 1 -68 32 -22 40 -20 81 19 24 24 45 35 65
35 33 0 82 -39 83 -67 0 -11 3 -13 6 -5 16 40 -93 112 -171 112 -36 0 -48 -5
-65 -26z"/>
<path d="M1202 780 c14 -10 36 -43 49 -72 23 -51 24 -65 27 -304 l3 -251 -48
-48 c-35 -35 -39 -42 -15 -24 18 13 68 66 110 119 l77 95 -6 160 c-7 214 -31
268 -144 321 -61 29 -87 31 -53 4z"/>
<path d="M1586 766 c33 -33 34 -35 34 -121 l0 -88 -57 -66 c-32 -36 10 2 92
86 160 162 219 203 298 203 81 0 155 -61 176 -146 15 -57 15 -538 0 -565 -5
-11 -23 -28 -38 -37 -27 -17 -24 -17 111 -17 113 0 135 2 121 13 -9 6 -20 12
-25 12 -4 0 -14 13 -23 30 -12 24 -15 75 -16 277 l0 248 -37 70 c-49 92 -104
128 -201 133 -91 5 -139 -10 -216 -68 l-65 -49 0 59 0 60 -94 0 -94 0 34 -34z"/>
<path d="M2407 785 c-21 -8 -51 -24 -67 -35 -31 -22 -80 -97 -80 -121 0 -8 9
4 19 26 45 99 169 151 265 111 43 -18 92 -78 105 -132 6 -25 11 -145 11 -289
0 -201 -3 -251 -15 -275 -9 -17 -19 -30 -23 -30 -5 0 -16 -6 -25 -13 -14 -10
8 -12 122 -12 137 0 139 0 111 18 -15 10 -33 30 -39 45 -6 16 -12 128 -14 267
-2 220 -5 245 -25 295 -25 63 -79 122 -134 145 -46 19 -159 19 -211 0z"/>
<path d="M4540 785 l-35 -13 43 -1 c38 -1 45 -5 70 -41 33 -48 72 -54 97 -16
19 28 9 58 -25 76 -26 14 -108 11 -150 -5z"/>
<path d="M5775 786 c-33 -14 -105 -89 -105 -109 0 -6 8 2 19 18 30 48 67 77
118 91 30 8 38 13 23 13 -14 0 -38 -6 -55 -13z"/>
<path d="M5887 793 c48 -6 98 -58 117 -122 13 -44 16 -104 16 -304 0 -210 3
-254 16 -283 21 -45 60 -64 126 -64 49 1 51 2 29 14 -47 26 -50 45 -51 302 0
280 -7 320 -71 389 -45 49 -109 76 -173 73 -37 -1 -38 -2 -9 -5z"/>
<path d="M6372 473 c3 -312 4 -330 25 -375 25 -54 62 -78 122 -78 l40 0 -24
24 c-40 41 -45 82 -45 429 l0 327 -61 0 -60 0 3 -327z"/>
<path d="M8184 776 c-69 -27 -144 -64 -144 -71 0 -3 22 6 50 20 68 34 157 56
198 49 48 -9 98 -63 117 -126 12 -41 15 -105 15 -302 -1 -268 -4 -286 -51
-312 -21 -12 -7 -13 109 -14 l132 0 -32 29 -33 29 -5 259 c-5 257 -5 258 -33
318 -16 33 -38 71 -50 84 -58 63 -167 77 -273 37z"/>
<path d="M8793 781 c-96 -44 -139 -159 -98 -259 31 -74 86 -113 237 -172 171
-67 218 -105 218 -177 0 -41 -33 -89 -77 -112 -21 -11 -34 -20 -30 -21 40 -2
133 92 143 145 11 59 -1 122 -30 160 -28 37 -131 92 -264 140 -136 50 -194
117 -171 199 12 42 61 86 116 103 21 6 29 12 18 12 -11 0 -39 -8 -62 -18z"/>
<path d="M7233 765 c-65 -33 -147 -119 -181 -192 -24 -51 -27 -70 -27 -158 0
-92 3 -106 32 -167 17 -37 50 -87 72 -111 38 -41 143 -107 171 -107 7 0 -7 10
-31 23 -89 47 -144 190 -144 377 0 148 27 223 106 302 31 32 56 58 55 58 -1 0
-25 -11 -53 -25z"/>
<path d="M7459 759 c53 -10 82 -28 115 -72 47 -61 87 -216 63 -245 -6 -9 16 3
50 26 69 47 69 43 23 133 -48 93 -167 171 -258 168 l-37 -1 44 -9z"/>
<path d="M7350 739 c-36 -22 -79 -67 -80 -84 0 -5 13 7 30 27 16 19 49 45 72
57 24 11 36 21 28 21 -8 0 -31 -10 -50 -21z"/>
<path d="M5661 644 c0 -11 3 -14 6 -6 3 7 2 16 -1 19 -3 4 -6 -2 -5 -13z"/>
<path d="M1155 621 c-11 -49 -68 -104 -170 -161 -53 -30 -115 -72 -136 -94
-94 -93 -83 -253 22 -323 35 -23 54 -28 127 -31 66 -3 95 0 122 12 19 9 26 14
15 10 -54 -16 -84 -15 -128 4 -60 27 -99 84 -105 156 -7 82 11 117 108 221 49
52 102 114 119 138 28 41 50 97 38 97 -3 0 -8 -13 -12 -29z"/>
<path d="M7953 614 l-53 -35 0 -245 0 -246 -34 -34 -34 -34 131 0 c102 1 127
3 112 12 -54 29 -55 31 -55 336 0 155 -3 282 -7 281 -5 0 -32 -16 -60 -35z"/>
<path d="M1678 572 l-58 -61 0 -206 c0 -165 -3 -212 -15 -235 -9 -17 -19 -30
-23 -30 -5 0 -16 -6 -25 -12 -14 -11 8 -13 122 -13 76 0 137 3 134 7 -2 5 -10
8 -18 8 -7 0 -23 13 -34 29 -19 27 -21 45 -23 301 l-3 272 -57 -60z"/>
<path d="M5652 595 c0 -16 2 -22 5 -12 2 9 2 23 0 30 -3 6 -5 -1 -5 -18z"/>
<path d="M7253 560 c0 -30 2 -43 4 -27 2 15 2 39 0 55 -2 15 -4 2 -4 -28z"/>
<path d="M5732 529 c-123 -39 -221 -121 -243 -203 -6 -22 -9 -71 -7 -108 5
-88 39 -141 118 -181 50 -26 62 -28 140 -25 71 4 95 10 147 36 34 17 64 35 66
40 3 4 -26 -8 -65 -27 -95 -48 -160 -49 -215 -5 -152 124 -108 377 82 465 71
33 64 35 -23 8z"/>
<path d="M5263 493 c9 -2 23 -2 30 0 6 3 -1 5 -18 5 -16 0 -22 -2 -12 -5z"/>
<path d="M7260 493 c0 -17 58 -81 84 -94 11 -6 6 2 -13 17 -18 15 -42 41 -52
58 -10 17 -19 26 -19 19z"/>
<path d="M5198 483 c6 -2 18 -2 25 0 6 3 1 5 -13 5 -14 0 -19 -2 -12 -5z"/>
<path d="M5158 473 c7 -3 16 -2 19 1 4 3 -2 6 -13 5 -11 0 -14 -3 -6 -6z"/>
<path d="M7698 439 c-46 -30 -48 -34 -48 -78 0 -71 -28 -170 -61 -222 -27 -43
-81 -89 -119 -102 -11 -4 -11 -6 -1 -6 7 -1 40 13 73 31 78 41 160 131 188
205 23 59 40 203 24 203 -5 0 -30 -14 -56 -31z"/>
<path d="M5030 430 c-8 -5 -10 -10 -5 -10 6 0 17 5 25 10 8 5 11 10 5 10 -5 0
-17 -5 -25 -10z"/>
<path d="M1479 393 l-24 -28 28 24 c25 23 32 31 24 31 -2 0 -14 -12 -28 -27z"/>
<path d="M7498 383 c7 -3 16 -2 19 1 4 3 -2 6 -13 5 -11 0 -14 -3 -6 -6z"/>
<path d="M4914 348 l-19 -23 23 19 c12 11 22 21 22 23 0 8 -8 2 -26 -19z"/>
<path d="M1429 333 l-24 -28 28 24 c25 23 32 31 24 31 -2 0 -14 -12 -28 -27z"/>
<path d="M1343 180 c-29 -36 -53 -73 -53 -83 0 -11 13 -31 30 -47 24 -22 41
-28 92 -32 35 -3 65 -4 66 -2 2 1 -10 9 -26 18 -39 20 -45 35 -51 131 l-6 80
-52 -65z"/>
<path d="M5396 215 c-9 -26 -7 -32 5 -12 6 10 9 21 6 23 -2 3 -7 -2 -11 -11z"/>
<path d="M8750 141 c0 -6 4 -13 10 -16 6 -3 7 1 4 9 -7 18 -14 21 -14 7z"/>
<path d="M5979 113 c-13 -16 -12 -17 4 -4 9 7 17 15 17 17 0 8 -8 3 -21 -13z"/>
<path d="M8785 90 c10 -11 20 -20 23 -20 3 0 -3 9 -13 20 -10 11 -20 20 -23
20 -3 0 3 -9 13 -20z"/>
<path d="M7328 23 c6 -2 18 -2 25 0 6 3 1 5 -13 5 -14 0 -19 -2 -12 -5z"/>
<path d="M7418 23 c6 -2 18 -2 25 0 6 3 1 5 -13 5 -14 0 -19 -2 -12 -5z"/>
<path d="M8933 23 c9 -2 25 -2 35 0 9 3 1 5 -18 5 -19 0 -27 -2 -17 -5z"/>
</g>
</svg>
