<svg width="20" height="16" viewBox="0 0 20 16" fill="none" xmlns="http://www.w3.org/2000/svg">
<path d="M13.75 10.8571C13.5511 10.8571 13.3603 10.9474 13.2197 11.1082C13.079 11.2689 13 11.487 13 11.7143C13 11.9416 13.079 12.1596 13.2197 12.3204C13.3603 12.4811 13.5511 12.5714 13.75 12.5714H16.25C16.4489 12.5714 16.6397 12.4811 16.7803 12.3204C16.921 12.1596 17 11.9416 17 11.7143C17 11.487 16.921 11.2689 16.7803 11.1082C16.6397 10.9474 16.4489 10.8571 16.25 10.8571H13.75ZM0 3.71429C0 2.7292 0.34241 1.78445 0.951903 1.08789C1.5614 0.391325 2.38805 0 3.25 0H16.75C17.1768 0 17.5994 0.0960731 17.9937 0.282733C18.388 0.469394 18.7463 0.742986 19.0481 1.08789C19.3499 1.43279 19.5893 1.84225 19.7526 2.29289C19.9159 2.74353 20 3.22652 20 3.71429V12.2857C20 12.7735 19.9159 13.2565 19.7526 13.7071C19.5893 14.1577 19.3499 14.5672 19.0481 14.9121C18.7463 15.257 18.388 15.5306 17.9937 15.7173C17.5994 15.9039 17.1768 16 16.75 16H3.25C2.38805 16 1.5614 15.6087 0.951903 14.9121C0.34241 14.2155 0 13.2708 0 12.2857V3.71429ZM18.5 5.14286V3.71429C18.5 3.18385 18.3156 2.67515 17.9874 2.30007C17.6592 1.925 17.2141 1.71429 16.75 1.71429H3.25C2.78587 1.71429 2.34075 1.925 2.01256 2.30007C1.68437 2.67515 1.5 3.18385 1.5 3.71429V5.14286H18.5ZM1.5 6.85714V12.2857C1.5 13.3897 2.284 14.2857 3.25 14.2857H16.75C17.2141 14.2857 17.6592 14.075 17.9874 13.6999C18.3156 13.3249 18.5 12.8161 18.5 12.2857V6.85714H1.5Z" fill="black"/>
</svg>
