<svg width="16" height="18" viewBox="0 0 16 18" fill="none" xmlns="http://www.w3.org/2000/svg">
<path d="M5.09359 9.72852C2.29127 9.72852 0 12.0144 0 14.8167V15.5413C0 16.7374 0.988426 17.7258 2.1845 17.7258H12.361C13.557 17.7258 14.5455 16.7374 14.5455 15.5413V14.8167C14.5455 12.0144 12.2596 9.72852 9.45723 9.72852H5.09359ZM5.09359 11.1831H9.45723C11.4737 11.1831 13.0909 12.8003 13.0909 14.8167V15.5413C13.0909 15.9515 12.7711 16.2713 12.361 16.2713H2.1845C1.77433 16.2713 1.45455 15.9515 1.45455 15.5413V14.8167C1.45455 12.8003 3.07717 11.1831 5.09359 11.1831Z" fill="white"/>
<path d="M7.27257 0.275879C4.87182 0.275879 2.90894 2.23338 2.90894 4.63413C2.90894 7.0349 4.87182 8.99778 7.27257 8.99781C9.67333 8.99778 11.6362 7.0349 11.6362 4.63413C11.6362 2.23338 9.67333 0.275879 7.27257 0.275879ZM7.27257 1.72506C8.88743 1.72506 10.1817 3.01928 10.1817 4.63413C10.1817 6.249 8.88743 7.54324 7.27257 7.54324C5.65772 7.54324 4.36349 6.249 4.36348 4.63413C4.36349 3.01928 5.65772 1.72506 7.27257 1.72506Z" fill="white"/>
<path d="M15.9988 1.72809C15.9988 2.11376 15.8455 2.48363 15.5728 2.75634C15.3001 3.02904 14.9302 3.18226 14.5445 3.18226C14.1588 3.18226 13.7889 3.02904 13.5162 2.75634C13.2434 2.48363 13.0902 2.11376 13.0902 1.72809C13.0902 1.34242 13.2434 0.972541 13.5162 0.699832C13.7889 0.427122 14.1588 0.273926 14.5445 0.273926C14.9302 0.273925 15.3001 0.427122 15.5728 0.699832C15.8455 0.972541 15.9988 1.34242 15.9988 1.72809Z" fill="white"/>
<path d="M13.8155 1.00196C13.6236 1.00262 13.4396 1.07917 13.3039 1.21491C13.1682 1.35065 13.0916 1.53458 13.0909 1.72655C13.0909 2.49615 13.2778 3.73537 13.4613 4.86109C13.6448 5.98678 13.8316 6.9543 13.8316 6.9543C13.8638 7.12003 13.9526 7.26943 14.0828 7.37683C14.2131 7.48424 14.3767 7.54297 14.5455 7.54297C14.7143 7.54297 14.8779 7.48424 15.0081 7.37683C15.1384 7.26943 15.2272 7.12003 15.2593 6.9543C15.2593 6.9543 15.4408 5.98678 15.6243 4.86109C15.8078 3.73537 16 2.49617 16 1.72655C15.9997 1.63103 15.9806 1.53652 15.9437 1.44841C15.9068 1.3603 15.853 1.28031 15.7852 1.21302C15.7174 1.14574 15.637 1.09245 15.5486 1.05624C15.4602 1.02003 15.3656 1.00158 15.2701 1.00196C15.0781 1.00262 14.8942 1.07917 14.7584 1.21491C14.6227 1.35065 14.5461 1.53458 14.5455 1.72655C14.5452 1.63103 14.526 1.53652 14.4892 1.44841C14.4523 1.3603 14.3984 1.28031 14.3306 1.21302C14.2628 1.14574 14.1825 1.09245 14.0941 1.05624C14.0057 1.02003 13.911 1.00158 13.8155 1.00196Z" fill="white"/>
<path d="M15.2717 6.81693C15.2717 6.91241 15.2529 7.00695 15.2163 7.09517C15.1798 7.18339 15.1262 7.26354 15.0587 7.33106C14.9912 7.39858 14.911 7.45214 14.8228 7.48868C14.7346 7.52522 14.6401 7.54403 14.5446 7.54403C14.4491 7.54403 14.3546 7.52522 14.2663 7.48868C14.1781 7.45214 14.098 7.39858 14.0305 7.33106C13.9629 7.26354 13.9094 7.18339 13.8728 7.09517C13.8363 7.00695 13.8175 6.91241 13.8175 6.81693C13.8175 6.62409 13.8941 6.43915 14.0305 6.3028C14.1668 6.16644 14.3518 6.08984 14.5446 6.08984C14.7374 6.08984 14.9224 6.16644 15.0587 6.3028C15.1951 6.43915 15.2717 6.62409 15.2717 6.81693Z" fill="white"/>
<path d="M13.8175 1.72705L14.5446 6.81668L15.2717 1.72705" fill="white"/>
<path d="M15.2717 8.99859C15.2717 9.19143 15.1951 9.37637 15.0587 9.51272C14.9224 9.64908 14.7374 9.72567 14.5446 9.72567C14.3518 9.72567 14.1668 9.64908 14.0305 9.51272C13.8941 9.37637 13.8175 9.19142 13.8175 8.99859C13.8175 8.9031 13.8363 8.80857 13.8728 8.72035C13.9094 8.63213 13.9629 8.55198 14.0305 8.48446C14.098 8.41694 14.1781 8.36338 14.2663 8.32683C14.3546 8.29029 14.4491 8.27148 14.5446 8.27148C14.6401 8.27148 14.7346 8.29029 14.8228 8.32683C14.911 8.36338 14.9912 8.41694 15.0587 8.48446C15.1262 8.55198 15.1798 8.63213 15.2163 8.72035C15.2529 8.80857 15.2717 8.9031 15.2717 8.99859Z" fill="white"/>
</svg>
