<svg width="20" height="18" viewBox="0 0 20 18" fill="none" xmlns="http://www.w3.org/2000/svg">
<path d="M10.767 6.08793L10.7679 6.08702L13.1355 3.71946C13.3728 3.48216 13.3728 3.09872 13.1355 2.86142C12.8982 2.62412 12.5147 2.62412 12.2774 2.86142L10.9445 4.19437V1.11552C10.9445 0.781446 10.6771 0.507129 10.3417 0.507129C10.007 0.507129 9.7333 0.780789 9.7333 1.11552V4.19471L8.40593 2.87259C8.16864 2.63529 7.78519 2.63529 7.54789 2.87259C7.3106 3.10988 7.3106 3.49333 7.54789 3.73062L9.90429 6.08702L9.90429 6.08702C9.90438 6.08711 9.90448 6.08721 9.90457 6.0873L9.90987 6.0926L9.90988 6.09261L9.90991 6.09257C10.0308 6.21053 10.1812 6.2636 10.3361 6.2636C10.4945 6.2636 10.6463 6.20254 10.767 6.08792L10.767 6.08793Z" fill="black" stroke="black" stroke-width="0.1"/>
<path d="M18.4074 12.5608L18.401 12.5551C18.4897 12.3865 18.4542 12.1229 18.2903 11.9292C18.1809 11.7999 18.0339 11.7134 17.8873 11.6897L17.8871 11.6897C17.6735 11.6549 17.3922 11.7032 17.0248 11.8513L17.024 11.8516L12.1479 13.7664C11.6171 14.2117 10.8198 14.348 10.1479 14.0677L10.148 14.0677L10.1863 13.9753L10.1478 14.0676L18.4074 12.5608ZM18.4074 12.5608C18.3751 12.6107 18.3236 12.6621 18.1768 12.7356L18.1762 12.7359L12.0451 15.8517L12.0448 15.8512L12.0363 15.8567C11.433 16.2446 10.881 16.3139 10.3304 16.0885C10.3304 16.0884 10.3303 16.0884 10.3303 16.0884L9.17487 15.6084L9.17444 15.6082C7.84349 15.0625 6.34532 14.4504 4.82575 14.4504C4.43366 14.4504 4.04045 14.4902 3.64097 14.5872C3.64088 14.5872 3.64079 14.5873 3.6407 14.5873L2.75079 14.7973L2.2778 12.0645L4.20809 10.8553C4.20821 10.8553 4.20833 10.8552 4.20845 10.8551C4.29412 10.8023 4.36656 10.7299 4.41935 10.6442C4.49897 10.5168 4.60023 10.3889 4.71777 10.2713C5.10627 9.88282 5.65581 9.65846 6.21055 9.65846C6.28716 9.65846 6.35222 9.67277 6.40661 9.69544L6.40665 9.69545L9.37169 10.9295L9.37223 10.9297L11.1566 11.6602M18.4074 12.5608L11.5035 12.0561M11.3339 12.7309C11.1617 12.8928 10.886 12.9464 10.6547 12.85L10.6545 12.8499L8.1362 11.8057L8.13597 11.8056C7.80104 11.6677 7.41261 11.8248 7.27394 12.1616C7.13605 12.4964 7.29306 12.8848 7.6297 13.0235L7.62964 13.0235L7.66794 12.9311L7.62987 13.0236L8.0979 11.8981L10.6162 12.9423C10.8843 13.054 11.2025 12.9925 11.4036 12.8027M11.3339 12.7309L11.3328 12.732L11.4036 12.8027M11.3339 12.7309C11.3342 12.7306 11.3346 12.7303 11.3349 12.73L11.4036 12.8027M11.3339 12.7309L11.3481 12.7167M11.4036 12.8027L11.4203 12.7859M11.4203 12.7859L11.3468 12.7181C11.3473 12.7176 11.3477 12.7172 11.3481 12.7167M11.4203 12.7859L11.3496 12.7152L11.3481 12.7167M11.4203 12.7859C11.4873 12.7133 11.5432 12.6352 11.5822 12.5402L11.5035 12.0561M11.3481 12.7167C11.4088 12.6507 11.4566 12.5828 11.4898 12.5022L11.4899 12.5018C11.499 12.4801 11.5073 12.4442 11.5148 12.3958C11.5206 12.3585 11.5251 12.3195 11.5296 12.2805C11.5308 12.2701 11.532 12.2597 11.5332 12.2494L11.5339 12.2431L11.5341 12.2432C11.5404 12.2083 11.5317 12.1523 11.5035 12.0561M11.5035 12.0561C11.5036 12.0565 11.5037 12.057 11.5039 12.0574L11.599 12.0265L11.5031 12.0547C11.5032 12.0552 11.5033 12.0557 11.5035 12.0561ZM11.5035 12.0561C11.4451 11.8773 11.3201 11.7379 11.1566 11.6602M11.1566 11.6602L11.1591 11.6612L11.197 11.5687L11.1544 11.6591C11.1551 11.6595 11.1559 11.6598 11.1566 11.6602ZM19.3082 11.0626L19.3082 11.0626C18.9974 10.699 18.5744 10.4577 18.1151 10.3812L18.1145 10.3811C17.6397 10.3049 17.124 10.3822 16.5479 10.6216L12.8532 12.0725C12.84 11.9366 12.8093 11.7972 12.7668 11.6569L12.7668 11.6569L12.7663 11.6552C12.5956 11.1254 12.2071 10.6904 11.6847 10.4556L11.6843 10.4554C11.6573 10.4435 11.2053 10.2582 10.7637 10.0773L10.1574 9.82921L9.95871 9.74793L9.90315 9.72521L9.88852 9.71922L9.88477 9.71769L9.88399 9.71737L9.88383 9.7173L9.88359 9.71721L9.88353 9.71718L6.92589 8.48949C6.92566 8.48939 6.92543 8.48929 6.9252 8.4892C6.70544 8.39428 6.4687 8.34727 6.21613 8.34727C5.30761 8.34727 4.42777 8.70941 3.78902 9.34815C3.64482 9.49236 3.50573 9.65816 3.39221 9.82556L1.21027 11.1879L1.21026 11.1879L1.20891 11.1888C0.986045 11.333 0.86816 11.595 0.907478 11.8571L0.907455 11.8571L0.907823 11.8592L1.5723 15.7177L1.5723 15.7177L1.57253 15.7189C1.60501 15.8944 1.70313 16.0531 1.85633 16.153C2.00758 16.2517 2.19148 16.2843 2.3682 16.2451L2.3682 16.2451L2.36962 16.2447L3.94416 15.8706C3.94418 15.8706 3.94421 15.8706 3.94423 15.8706C4.69 15.6944 5.48734 15.7759 6.29727 15.9846C7.10747 16.1934 7.92194 16.527 8.70194 16.8485L9.82353 17.3117C9.82365 17.3117 9.82376 17.3118 9.82387 17.3118C10.1934 17.4677 10.5751 17.5429 10.9568 17.5429C11.5519 17.5429 12.1385 17.3584 12.6875 17.0048L18.7687 13.914C18.7688 13.9139 18.7689 13.9139 18.769 13.9139C19.0224 13.7871 19.3563 13.5799 19.577 13.1685C19.9335 12.5091 19.8183 11.6607 19.3082 11.0626Z" fill="black" stroke="black" stroke-width="0.2"/>
</svg>
