<svg width="17" height="20" viewBox="0 0 17 20" fill="none" xmlns="http://www.w3.org/2000/svg">
<mask id="path-1-outside-1_739_4151" maskUnits="userSpaceOnUse" x="0" y="-0.5" width="17" height="21" fill="white">
<rect fill="white" y="-0.5" width="17" height="21"/>
<path d="M15.9977 3.89597C15.9992 3.91016 16 3.92453 16 3.93893V19.0702C16 19.3076 15.7914 19.5 15.5342 19.5H1.46584C1.20856 19.5 1 19.3076 1 19.0702V0.929819C1 0.692449 1.20856 0.5 1.46584 0.5H12.2733C12.2889 0.5 12.3044 0.500758 12.3199 0.502134C12.3311 0.503165 12.3422 0.504918 12.3532 0.50668C12.3571 0.507326 12.3611 0.507618 12.3651 0.50835C12.3784 0.510799 12.3914 0.514053 12.4043 0.517534L12.4091 0.518647C12.4222 0.522345 12.435 0.526672 12.4476 0.531357L12.4519 0.532842C12.4638 0.5374 12.4753 0.542549 12.4866 0.547964C12.4887 0.548996 12.491 0.549808 12.4932 0.55084C12.5034 0.555869 12.5131 0.561544 12.5228 0.567261C12.526 0.569108 12.5293 0.570749 12.5324 0.572642C12.5411 0.578015 12.5493 0.583917 12.5575 0.589805C12.5613 0.592514 12.5653 0.594988 12.569 0.597783C12.5776 0.604274 12.5855 0.611279 12.5936 0.618286C12.5965 0.620864 12.5997 0.623186 12.6027 0.625894L15.8635 3.63491C15.8664 3.63761 15.8689 3.6406 15.8718 3.64335C15.8794 3.65074 15.887 3.65812 15.894 3.66599C15.8971 3.66943 15.8997 3.67313 15.9026 3.67666C15.909 3.68426 15.9154 3.69181 15.9213 3.69985C15.9234 3.70273 15.9251 3.70574 15.9271 3.70866C15.9333 3.71765 15.9394 3.72662 15.9448 3.73603C15.946 3.73801 15.9469 3.74018 15.948 3.74215C15.9539 3.75264 15.9595 3.7632 15.9644 3.77416L15.966 3.77815C15.9711 3.78976 15.9758 3.8016 15.9798 3.81368L15.981 3.81804C15.9848 3.82995 15.9882 3.84202 15.9909 3.85432C15.9917 3.85793 15.992 3.86156 15.9927 3.86517C15.9946 3.8754 15.9965 3.88553 15.9977 3.89597ZM12.7391 1.96768V3.50901H14.4095L12.7391 1.96768ZM1.93168 18.6403H15.0683V4.36875H12.2733C12.0161 4.36875 11.8075 4.1763 11.8075 3.93893V1.35973H1.93168V18.6403ZM4.56201 15.13C4.26787 15.13 4.05777 14.9361 4.05777 14.6646C4.05777 14.3932 4.26787 14.18 4.56201 14.18H7.62951C7.92365 14.18 8.13375 14.3932 8.13375 14.6646C8.13375 14.9361 7.92365 15.13 7.62951 15.13H4.56201ZM4.56201 17.03C4.26787 17.03 4.05777 16.8361 4.05777 16.5646C4.05777 16.2932 4.26787 16.08 4.56201 16.08H7.62951C7.92365 16.08 8.13375 16.2932 8.13375 16.5646C8.13375 16.8361 7.92365 17.03 7.62951 17.03H4.56201ZM9.29773 15.13C9.00358 15.13 8.79348 14.9361 8.79348 14.6646C8.79348 14.3932 9.00358 14.18 9.29773 14.18H12.3652C12.6594 14.18 12.8695 14.3932 12.8695 14.6646C12.8695 14.9361 12.6594 15.13 12.3652 15.13H9.29773ZM9.29773 17.03C9.00358 17.03 8.79348 16.8361 8.79348 16.5646C8.79348 16.2932 9.00358 16.08 9.29773 16.08H12.3652C12.6594 16.08 12.8695 16.2932 12.8695 16.5646C12.8695 16.8361 12.6594 17.03 12.3652 17.03H9.29773ZM12.6776 9.06688C12.8238 9.06688 12.9422 9.17697 12.9422 9.31273V9.42276C12.9422 10.1507 12.3051 10.7427 11.5216 10.7427C10.7381 10.7427 10.1009 10.1507 10.1009 9.42276V9.31273C10.1009 9.17697 10.2194 9.06688 10.3655 9.06688H10.406L11.0606 6.79551L8.91398 6.76666V10.5277L9.81368 11.3512C9.93062 11.4582 9.9964 11.6039 9.9964 11.7559V12.1256C9.9964 12.2614 9.87794 12.3715 9.7318 12.3715H7.09303C6.94688 12.3715 6.82843 12.2614 6.82843 12.1256V11.7559C6.82843 11.6039 6.89419 11.4582 7.01113 11.3512L7.91086 10.5277V6.76666L5.76423 6.79551L6.4188 9.06688H6.4593C6.60545 9.06688 6.72391 9.17697 6.72391 9.31273V9.42276C6.72391 10.1507 6.08674 10.7427 5.30325 10.7427C4.51978 10.7427 3.88261 10.1507 3.88261 9.42276V9.31273C3.88261 9.17697 4.00106 9.06688 4.14721 9.06688H4.18654L4.95739 6.28285C4.97995 6.16713 5.08647 6.06798 5.21776 6.06798H7.91086V5.49585C7.91086 5.36008 8.02932 5.25 8.17547 5.25H8.64937C8.79552 5.25 8.91398 5.36008 8.91398 5.49585V6.06798H11.6071C11.7384 6.06798 11.8449 6.16709 11.8652 6.2732L12.6383 9.06688H12.6776ZM11.7678 8.96558L11.4323 7.88189L11.0968 8.96558H11.7678ZM5.56031 8.96558L5.22477 7.88189L4.88924 8.96558H5.56031Z"/>
</mask>
<path d="M15.9977 3.89597C15.9992 3.91016 16 3.92453 16 3.93893V19.0702C16 19.3076 15.7914 19.5 15.5342 19.5H1.46584C1.20856 19.5 1 19.3076 1 19.0702V0.929819C1 0.692449 1.20856 0.5 1.46584 0.5H12.2733C12.2889 0.5 12.3044 0.500758 12.3199 0.502134C12.3311 0.503165 12.3422 0.504918 12.3532 0.50668C12.3571 0.507326 12.3611 0.507618 12.3651 0.50835C12.3784 0.510799 12.3914 0.514053 12.4043 0.517534L12.4091 0.518647C12.4222 0.522345 12.435 0.526672 12.4476 0.531357L12.4519 0.532842C12.4638 0.5374 12.4753 0.542549 12.4866 0.547964C12.4887 0.548996 12.491 0.549808 12.4932 0.55084C12.5034 0.555869 12.5131 0.561544 12.5228 0.567261C12.526 0.569108 12.5293 0.570749 12.5324 0.572642C12.5411 0.578015 12.5493 0.583917 12.5575 0.589805C12.5613 0.592514 12.5653 0.594988 12.569 0.597783C12.5776 0.604274 12.5855 0.611279 12.5936 0.618286C12.5965 0.620864 12.5997 0.623186 12.6027 0.625894L15.8635 3.63491C15.8664 3.63761 15.8689 3.6406 15.8718 3.64335C15.8794 3.65074 15.887 3.65812 15.894 3.66599C15.8971 3.66943 15.8997 3.67313 15.9026 3.67666C15.909 3.68426 15.9154 3.69181 15.9213 3.69985C15.9234 3.70273 15.9251 3.70574 15.9271 3.70866C15.9333 3.71765 15.9394 3.72662 15.9448 3.73603C15.946 3.73801 15.9469 3.74018 15.948 3.74215C15.9539 3.75264 15.9595 3.7632 15.9644 3.77416L15.966 3.77815C15.9711 3.78976 15.9758 3.8016 15.9798 3.81368L15.981 3.81804C15.9848 3.82995 15.9882 3.84202 15.9909 3.85432C15.9917 3.85793 15.992 3.86156 15.9927 3.86517C15.9946 3.8754 15.9965 3.88553 15.9977 3.89597ZM12.7391 1.96768V3.50901H14.4095L12.7391 1.96768ZM1.93168 18.6403H15.0683V4.36875H12.2733C12.0161 4.36875 11.8075 4.1763 11.8075 3.93893V1.35973H1.93168V18.6403ZM4.56201 15.13C4.26787 15.13 4.05777 14.9361 4.05777 14.6646C4.05777 14.3932 4.26787 14.18 4.56201 14.18H7.62951C7.92365 14.18 8.13375 14.3932 8.13375 14.6646C8.13375 14.9361 7.92365 15.13 7.62951 15.13H4.56201ZM4.56201 17.03C4.26787 17.03 4.05777 16.8361 4.05777 16.5646C4.05777 16.2932 4.26787 16.08 4.56201 16.08H7.62951C7.92365 16.08 8.13375 16.2932 8.13375 16.5646C8.13375 16.8361 7.92365 17.03 7.62951 17.03H4.56201ZM9.29773 15.13C9.00358 15.13 8.79348 14.9361 8.79348 14.6646C8.79348 14.3932 9.00358 14.18 9.29773 14.18H12.3652C12.6594 14.18 12.8695 14.3932 12.8695 14.6646C12.8695 14.9361 12.6594 15.13 12.3652 15.13H9.29773ZM9.29773 17.03C9.00358 17.03 8.79348 16.8361 8.79348 16.5646C8.79348 16.2932 9.00358 16.08 9.29773 16.08H12.3652C12.6594 16.08 12.8695 16.2932 12.8695 16.5646C12.8695 16.8361 12.6594 17.03 12.3652 17.03H9.29773ZM12.6776 9.06688C12.8238 9.06688 12.9422 9.17697 12.9422 9.31273V9.42276C12.9422 10.1507 12.3051 10.7427 11.5216 10.7427C10.7381 10.7427 10.1009 10.1507 10.1009 9.42276V9.31273C10.1009 9.17697 10.2194 9.06688 10.3655 9.06688H10.406L11.0606 6.79551L8.91398 6.76666V10.5277L9.81368 11.3512C9.93062 11.4582 9.9964 11.6039 9.9964 11.7559V12.1256C9.9964 12.2614 9.87794 12.3715 9.7318 12.3715H7.09303C6.94688 12.3715 6.82843 12.2614 6.82843 12.1256V11.7559C6.82843 11.6039 6.89419 11.4582 7.01113 11.3512L7.91086 10.5277V6.76666L5.76423 6.79551L6.4188 9.06688H6.4593C6.60545 9.06688 6.72391 9.17697 6.72391 9.31273V9.42276C6.72391 10.1507 6.08674 10.7427 5.30325 10.7427C4.51978 10.7427 3.88261 10.1507 3.88261 9.42276V9.31273C3.88261 9.17697 4.00106 9.06688 4.14721 9.06688H4.18654L4.95739 6.28285C4.97995 6.16713 5.08647 6.06798 5.21776 6.06798H7.91086V5.49585C7.91086 5.36008 8.02932 5.25 8.17547 5.25H8.64937C8.79552 5.25 8.91398 5.36008 8.91398 5.49585V6.06798H11.6071C11.7384 6.06798 11.8449 6.16709 11.8652 6.2732L12.6383 9.06688H12.6776ZM11.7678 8.96558L11.4323 7.88189L11.0968 8.96558H11.7678ZM5.56031 8.96558L5.22477 7.88189L4.88924 8.96558H5.56031Z" fill="white"/>
<path d="M15.9977 3.89597C15.9992 3.91016 16 3.92453 16 3.93893V19.0702C16 19.3076 15.7914 19.5 15.5342 19.5H1.46584C1.20856 19.5 1 19.3076 1 19.0702V0.929819C1 0.692449 1.20856 0.5 1.46584 0.5H12.2733C12.2889 0.5 12.3044 0.500758 12.3199 0.502134C12.3311 0.503165 12.3422 0.504918 12.3532 0.50668C12.3571 0.507326 12.3611 0.507618 12.3651 0.50835C12.3784 0.510799 12.3914 0.514053 12.4043 0.517534L12.4091 0.518647C12.4222 0.522345 12.435 0.526672 12.4476 0.531357L12.4519 0.532842C12.4638 0.5374 12.4753 0.542549 12.4866 0.547964C12.4887 0.548996 12.491 0.549808 12.4932 0.55084C12.5034 0.555869 12.5131 0.561544 12.5228 0.567261C12.526 0.569108 12.5293 0.570749 12.5324 0.572642C12.5411 0.578015 12.5493 0.583917 12.5575 0.589805C12.5613 0.592514 12.5653 0.594988 12.569 0.597783C12.5776 0.604274 12.5855 0.611279 12.5936 0.618286C12.5965 0.620864 12.5997 0.623186 12.6027 0.625894L15.8635 3.63491C15.8664 3.63761 15.8689 3.6406 15.8718 3.64335C15.8794 3.65074 15.887 3.65812 15.894 3.66599C15.8971 3.66943 15.8997 3.67313 15.9026 3.67666C15.909 3.68426 15.9154 3.69181 15.9213 3.69985C15.9234 3.70273 15.9251 3.70574 15.9271 3.70866C15.9333 3.71765 15.9394 3.72662 15.9448 3.73603C15.946 3.73801 15.9469 3.74018 15.948 3.74215C15.9539 3.75264 15.9595 3.7632 15.9644 3.77416L15.966 3.77815C15.9711 3.78976 15.9758 3.8016 15.9798 3.81368L15.981 3.81804C15.9848 3.82995 15.9882 3.84202 15.9909 3.85432C15.9917 3.85793 15.992 3.86156 15.9927 3.86517C15.9946 3.8754 15.9965 3.88553 15.9977 3.89597ZM12.7391 1.96768V3.50901H14.4095L12.7391 1.96768ZM1.93168 18.6403H15.0683V4.36875H12.2733C12.0161 4.36875 11.8075 4.1763 11.8075 3.93893V1.35973H1.93168V18.6403ZM4.56201 15.13C4.26787 15.13 4.05777 14.9361 4.05777 14.6646C4.05777 14.3932 4.26787 14.18 4.56201 14.18H7.62951C7.92365 14.18 8.13375 14.3932 8.13375 14.6646C8.13375 14.9361 7.92365 15.13 7.62951 15.13H4.56201ZM4.56201 17.03C4.26787 17.03 4.05777 16.8361 4.05777 16.5646C4.05777 16.2932 4.26787 16.08 4.56201 16.08H7.62951C7.92365 16.08 8.13375 16.2932 8.13375 16.5646C8.13375 16.8361 7.92365 17.03 7.62951 17.03H4.56201ZM9.29773 15.13C9.00358 15.13 8.79348 14.9361 8.79348 14.6646C8.79348 14.3932 9.00358 14.18 9.29773 14.18H12.3652C12.6594 14.18 12.8695 14.3932 12.8695 14.6646C12.8695 14.9361 12.6594 15.13 12.3652 15.13H9.29773ZM9.29773 17.03C9.00358 17.03 8.79348 16.8361 8.79348 16.5646C8.79348 16.2932 9.00358 16.08 9.29773 16.08H12.3652C12.6594 16.08 12.8695 16.2932 12.8695 16.5646C12.8695 16.8361 12.6594 17.03 12.3652 17.03H9.29773ZM12.6776 9.06688C12.8238 9.06688 12.9422 9.17697 12.9422 9.31273V9.42276C12.9422 10.1507 12.3051 10.7427 11.5216 10.7427C10.7381 10.7427 10.1009 10.1507 10.1009 9.42276V9.31273C10.1009 9.17697 10.2194 9.06688 10.3655 9.06688H10.406L11.0606 6.79551L8.91398 6.76666V10.5277L9.81368 11.3512C9.93062 11.4582 9.9964 11.6039 9.9964 11.7559V12.1256C9.9964 12.2614 9.87794 12.3715 9.7318 12.3715H7.09303C6.94688 12.3715 6.82843 12.2614 6.82843 12.1256V11.7559C6.82843 11.6039 6.89419 11.4582 7.01113 11.3512L7.91086 10.5277V6.76666L5.76423 6.79551L6.4188 9.06688H6.4593C6.60545 9.06688 6.72391 9.17697 6.72391 9.31273V9.42276C6.72391 10.1507 6.08674 10.7427 5.30325 10.7427C4.51978 10.7427 3.88261 10.1507 3.88261 9.42276V9.31273C3.88261 9.17697 4.00106 9.06688 4.14721 9.06688H4.18654L4.95739 6.28285C4.97995 6.16713 5.08647 6.06798 5.21776 6.06798H7.91086V5.49585C7.91086 5.36008 8.02932 5.25 8.17547 5.25H8.64937C8.79552 5.25 8.91398 5.36008 8.91398 5.49585V6.06798H11.6071C11.7384 6.06798 11.8449 6.16709 11.8652 6.2732L12.6383 9.06688H12.6776ZM11.7678 8.96558L11.4323 7.88189L11.0968 8.96558H11.7678ZM5.56031 8.96558L5.22477 7.88189L4.88924 8.96558H5.56031Z" stroke="white" stroke-width="0.1" mask="url(#path-1-outside-1_739_4151)"/>
</svg>
