<svg width="76" height="70" viewBox="0 0 76 70" fill="none" xmlns="http://www.w3.org/2000/svg">
<g filter="url(#filter0_d_736_6095)">
<path d="M59.2005 28.5864L56.8358 30.4048C49.0053 19.512 30.7312 26.9057 33.4704 40.5968L30.1884 37.029C30.1758 22.4179 51.4373 16.8898 59.2005 28.5864ZM57.7699 45.2222L56.8148 46.3613C55.4599 47.9776 53.9241 49.207 52.2284 50.0281C51.0165 50.6385 49.3924 50.9738 47.5326 50.9995C47.461 50.9995 47.3937 50.9995 47.3222 50.9995C42.6685 50.9995 38.1031 48.9362 34.7622 45.321L20.4391 29.8072L34.8884 16H30.87L18.9833 27.3785V16H16V49.0652H18.9833V32.6014L32.6289 47.3801C36.521 51.5971 41.8648 54 47.3264 54C47.4105 54 47.4905 54 47.5746 54C49.8678 53.9699 51.9296 53.5271 53.5075 52.7276C55.5567 51.7346 57.4207 50.2516 59.0448 48.3129L60 47.1738L57.7699 45.2222Z" fill="white"/>
</g>
<defs>
<filter id="filter0_d_736_6095" x="0" y="0" width="76" height="70" filterUnits="userSpaceOnUse" color-interpolation-filters="sRGB">
<feFlood flood-opacity="0" result="BackgroundImageFix"/>
<feColorMatrix in="SourceAlpha" type="matrix" values="0 0 0 0 0 0 0 0 0 0 0 0 0 0 0 0 0 0 127 0" result="hardAlpha"/>
<feOffset/>
<feGaussianBlur stdDeviation="8"/>
<feComposite in2="hardAlpha" operator="out"/>
<feColorMatrix type="matrix" values="0 0 0 0 0 0 0 0 0 0 0 0 0 0 0 0 0 0 0.1 0"/>
<feBlend mode="normal" in2="BackgroundImageFix" result="effect1_dropShadow_736_6095"/>
<feBlend mode="normal" in="SourceGraphic" in2="effect1_dropShadow_736_6095" result="shape"/>
</filter>
</defs>
</svg>
